<svg xmlns="http://www.w3.org/2000/svg" width="37" height="25" viewBox="0 0 37 25">
  <defs>
    <style>
      .cls-1 {
        fill: #fff;
        fill-rule: evenodd;
      }
    </style>
  </defs>
  <path id="Forma_1" data-name="Forma 1" class="cls-1" d="M946.549,38.993h0.008a1.413,1.413,0,0,0,.778-0.231l0.06-.039,0.041-.026,0.7-.589,16.82-14.026A0.2,0.2,0,0,0,964.8,24H928.2a0.188,0.188,0,0,0-.121.045l17.6,14.657A1.37,1.37,0,0,0,946.549,38.993ZM928.005,25.987V46.778l12.607-10.291Zm24.4,10.57L965,46.784V26.056Zm-4,3.338a2.976,2.976,0,0,1-3.7,0l-2.887-2.406L928.005,48.766V48.8a0.2,0.2,0,0,0,.2.2h36.6a0.2,0.2,0,0,0,.2-0.2V48.768L951.2,37.563Z" transform="translate(-928 -24)"/>
</svg>
