<svg xmlns="http://www.w3.org/2000/svg" width="36" height="36" viewBox="0 0 36 36">
  <defs>
    <style>
      .cls-1 {
        fill: #fff;
        fill-rule: evenodd;
      }
    </style>
  </defs>
  <path id="Instagram_icon" data-name="Instagram icon" class="cls-1" d="M838.76,654.437H823.241a2.687,2.687,0,0,1-2.683-2.674V636.24a2.688,2.688,0,0,1,2.683-2.676H838.76a2.687,2.687,0,0,1,2.682,2.676v15.523A2.686,2.686,0,0,1,838.76,654.437ZM831,639.528A4.468,4.468,0,1,0,835.474,644,4.471,4.471,0,0,0,831,639.528Zm7.461-2.191a0.794,0.794,0,0,0-.792-0.792h-1.4a0.8,0.8,0,0,0-.793.792v1.395a0.794,0.794,0,0,0,.793.791h1.4a0.794,0.794,0,0,0,.792-0.791v-1.395Zm0.976,5.165H837.3a6.476,6.476,0,1,1-12.594,0h-2.152v9.115a0.83,0.83,0,0,0,.83.827h15.222a0.83,0.83,0,0,0,.83-0.827V642.5ZM831,626a18,18,0,1,1-18,18A18,18,0,0,1,831,626Z" transform="translate(-813 -626)"/>
</svg>
