<svg xmlns="http://www.w3.org/2000/svg" width="36" height="36" viewBox="0 0 36 36">
  <defs>
    <style>
      .cls-1 {
        fill: #fff;
        fill-rule: evenodd;
      }
    </style>
  </defs>
  <path id="G_Icon" data-name="G+ Icon" class="cls-1" d="M744,663a18,18,0,1,1,18-18A18,18,0,0,1,744,663Zm-1.989-28.082c-3.256,0-5.971,2.353-5.971,4.979a4.594,4.594,0,0,0,4.847,4.82c0.212,0,.42-0.013.621-0.026a2.687,2.687,0,0,0-.34,1.244,2.218,2.218,0,0,0,.923,1.661c-0.386,0-.758.011-1.164,0.011-3.729,0-6.318,1.176-6.318,4.816,0,2.412,3.125,4.1,6.854,4.1,4.25,0,6.9-2.24,6.864-4.807-0.029-1.931-.42-2.9-2.491-4.449-0.6-.443-1.89-1.352-1.89-1.962,0-.716.2-1.067,1.289-1.91a4.327,4.327,0,0,0,1.895-3.407,4.015,4.015,0,0,0-1.821-3.606h1.685l1.434-1.463h-6.417Zm14.257,3.091H753.18V634.92h-1.025v3.089h-3.084v1.014h3.084v3.094h1.025v-3.094h3.088v-1.014Zm-14.141,5.637a3.9,3.9,0,0,1-3.485-3.614,2.92,2.92,0,0,1,2.795-3.57c1.641,0.05,2.71,1.653,2.993,3.785S743.768,643.693,742.127,643.646Zm3.778,7.7a1.669,1.669,0,0,1,.077.6c0,1.7-1.186,3-4.592,3-2.422,0-4.172-1.386-4.172-3.087,0-1.668,1.962-2.554,4.335-2.554C742.436,649.3,745.083,649.3,745.905,651.341Z" transform="translate(-726 -627)"/>
</svg>
