<svg xmlns="http://www.w3.org/2000/svg" width="24" height="37" viewBox="0 0 24 37">
  <defs>
    <style>
      .cls-1 {
        fill: #0d0f1b;
        fill-rule: evenodd;
      }
    </style>
  </defs>
  <path id="Forma_1_copy_4" data-name="Forma 1 copy 4" class="cls-1" d="M406,1662a12.135,12.135,0,0,0-12,12.24c0,2.72,1.7,7.15,5.2,13.55,2.476,4.52,4.912,8.29,5.014,8.45L406,1699l1.784-2.76c0.1-.16,2.538-3.93,5.013-8.45,3.5-6.4,5.2-10.83,5.2-13.55A12.135,12.135,0,0,0,406,1662Zm0,18.5a6.346,6.346,0,1,1,6.22-6.34A6.282,6.282,0,0,1,406,1680.5Z" transform="translate(-394 -1662)"/>
</svg>
