<svg xmlns="http://www.w3.org/2000/svg" width="25.031" height="25" viewBox="0 0 25.031 25">
  <defs>
    <style>
      .cls-1 {
        fill: #fff;
        fill-rule: evenodd;
      }
    </style>
  </defs>
  <path id="Phone" class="cls-1" d="M761.435,45.779l-3.862-3.87a2.012,2.012,0,0,0-2.839.054l-1.945,1.949-0.384-.214a18.252,18.252,0,0,1-8.07-8.088c-0.072-.131-0.142-0.256-0.209-0.376l1.305-1.306,0.642-.644a2.019,2.019,0,0,0,.052-2.845l-3.862-3.87a2.009,2.009,0,0,0-2.839.054l-1.088,1.1,0.03,0.03a6.311,6.311,0,0,0-.9,1.585,6.613,6.613,0,0,0-.4,1.608c-0.51,4.236,1.422,8.106,6.664,13.359,7.246,7.26,13.086,6.712,13.338,6.685a6.524,6.524,0,0,0,1.609-.405,6.283,6.283,0,0,0,1.576-.895l0.024,0.021,1.1-1.082A2.021,2.021,0,0,0,761.435,45.779Z" transform="translate(-736.969 -26)"/>
</svg>
