<svg xmlns="http://www.w3.org/2000/svg" width="36" height="36" viewBox="0 0 36 36">
  <defs>
    <style>
      .cls-1 {
        fill: #fff;
        fill-rule: evenodd;
      }
    </style>
  </defs>
  <path id="Twitter_Icon" data-name="Twitter Icon" class="cls-1" d="M667.809,638.346a8.92,8.92,0,0,1-2.549.694,4.428,4.428,0,0,0,1.951-2.437,8.972,8.972,0,0,1-2.816,1.069,4.444,4.444,0,0,0-7.674,3.014,4.391,4.391,0,0,0,.115,1,12.632,12.632,0,0,1-9.144-4.6,4.387,4.387,0,0,0,1.373,5.88,4.443,4.443,0,0,1-2.009-.552c0,0.018,0,.036,0,0.056a4.416,4.416,0,0,0,3.559,4.319,4.528,4.528,0,0,1-2,.075,4.433,4.433,0,0,0,4.144,3.058,8.938,8.938,0,0,1-5.509,1.887,8.8,8.8,0,0,1-1.058-.063A12.632,12.632,0,0,0,665.608,641.2c0-.19,0-0.382-0.012-0.57A8.982,8.982,0,0,0,667.809,638.346ZM657,627a18,18,0,1,1-18,18A18,18,0,0,1,657,627Z" transform="translate(-639 -627)"/>
</svg>
