<svg xmlns="http://www.w3.org/2000/svg" width="43" height="43.031" viewBox="0 0 43 43.031">
  <defs>
    <style>
      .cls-1 {
        fill: #fff;
        fill-rule: evenodd;
      }
    </style>
  </defs>
  <path id="Forma_1" data-name="Forma 1" class="cls-1" d="M683.163,883.042l-1.994,1.337a1.113,1.113,0,0,1-1.532-.286l-1.446-2.088a1.074,1.074,0,0,1,.291-1.508l4.063-2.726c0.032,0.294.066,0.589,0.1,0.883l0.154,1.72,0,0.024c0.091,0.759.155,1.213,0.23,1.739,0.036,0.256.075,0.531,0.121,0.87C683.158,883.018,683.161,883.03,683.163,883.042Zm37.356-25.06-28.295,18.981a45.527,45.527,0,0,1-.089-5.625l13.968-9.371-2.806-4.053a0.335,0.335,0,0,1,.091-0.469l12.072-8.1a0.347,0.347,0,0,1,.477.089l2.8,4.054,2.067,2.985A1.075,1.075,0,0,1,720.519,857.982Zm-4.494-6.206a0.839,0.839,0,0,0-1.155-.216l-9.268,6.217a0.812,0.812,0,0,0-.219,1.138,0.839,0.839,0,0,0,1.156.215l9.267-6.217A0.809,0.809,0,0,0,716.025,851.776Zm-18.108-4.086-1.044,1.8a47.685,47.685,0,0,0-5.941,30.867l0.3,2.049a3.114,3.114,0,0,1-2.39,3.524,3.385,3.385,0,0,1-1.323.015,3.5,3.5,0,0,1-2.718-3.153c-0.047-.342-0.086-0.62-0.123-0.878-0.073-.514-0.136-0.959-0.224-1.693l-0.155-1.724,0-.031a49.037,49.037,0,0,1,5.84-29.711l0.982-1.931c0.213-.366.392-0.706,0.583-1.066,0.092-.174.186-0.351,0.287-0.537A3.777,3.777,0,0,1,695.155,843a3.433,3.433,0,0,1,.622.059,3.356,3.356,0,0,1,1.226.491A3.083,3.083,0,0,1,697.917,847.69Zm-9.853,34.2a1.012,1.012,0,1,0,.983,1.421A1.019,1.019,0,0,0,688.064,881.892Zm7.083-36.8a1.012,1.012,0,1,0,.983,1.421A1.019,1.019,0,0,0,695.147,845.088Z" transform="translate(-678 -843)"/>
</svg>
