<svg xmlns="http://www.w3.org/2000/svg" width="22" height="34.125" viewBox="0 0 22 34.125">
  <defs>
    <style>
      .cls-1 {
        fill: #fff;
        fill-rule: evenodd;
      }
    </style>
  </defs>
  <path id="Forma_1" data-name="Forma 1" class="cls-1" d="M1023,846.931a11.159,11.159,0,0,0-11,11.292c0,2.508,1.56,6.6,4.77,12.5,2.27,4.175,4.5,7.656,4.59,7.8l1.64,2.545,1.63-2.545c0.1-.146,2.33-3.627,4.6-7.8,3.21-5.9,4.77-9.991,4.77-12.5A11.159,11.159,0,0,0,1023,846.931ZM1023,864a5.856,5.856,0,1,1,5.7-5.853A5.777,5.777,0,0,1,1023,864Z" transform="translate(-1012 -846.938)"/>
</svg>
